#!OML:ASF H:\Martial Arts Walks\Project 1\Capture day 1\Session 1\male.ASF
:FULLY-SPECIFIED
:DEGREES
215
root -0.881789 11.4558 11.2657 9.46779 1.8509 -1.84027
lowerback 19.1551 1.57478 -2.23094
upperback -3.60264 1.72056 1.10709
thorax -15.0615 1.04835 1.98663
lowerneck -9.28406 -3.21693 -5.59852
upperneck 7.51903 -4.05862 5.07096
head 3.97754 -1.90294 2.20681
rclavicle 3.22404e-015 4.32357e-015
rhumerus 40.0624 -2.81835 -62.7318
rradius 94.0561
rwrist 20.5948
rhand 1.04131 -13.9365
rfingers 7.12502
rthumb 26.5874 -42.0901
lclavicle 3.22404e-015 4.32357e-015
lhumerus 42.4567 -4.88864 86.3281
lradius 87.6052
lwrist -35.5647
lhand -11.0899 1.99849
lfingers 7.12502
lthumb 14.9339 31.4401
rfemur -73.9953 -5.44971 21.7594
rtibia 108.496
rfoot -33.248 -17.8435
rtoes -13.2551
lfemur -74.8119 11.6051 -17.9533
ltibia 107.554
lfoot -31.3253 16.2904
ltoes -13.3139
216
root -0.881023 11.4561 11.2655 9.47033 1.85876 -1.84248
lowerback 19.1629 1.5763 -2.22898
upperback -3.60005 1.72298 1.10748
thorax -15.0632 1.04927 1.98509
lowerneck -9.27034 -3.21113 -5.58736
upperneck 7.48129 -4.05076 5.06064
head 3.96292 -1.89953 2.20266
rclavicle 3.12837e-014 1.15295e-014
rhumerus 40.0594 -2.82426 -62.7033
rradius 94.0609
rwrist 20.6005
rhand 1.03018 -13.9255
rfingers 7.12502
rthumb 26.5767 -42.0807
lclavicle 3.12837e-014 1.15295e-014
lhumerus 42.462 -4.89261 86.3214
lradius 87.611
lwrist -35.5699
lhand -11.089 1.99891
lfingers 7.12502
lthumb 14.9348 31.4405
rfemur -73.9963 -5.45236 21.7559
rtibia 108.493
rfoot -33.2514 -17.8395
rtoes -13.2354
lfemur -74.8127 11.5963 -17.9533
ltibia 107.551
lfoot -31.3301 16.2805
ltoes -13.2859
217
root -0.880335 11.4565 11.2654 9.47184 1.86495 -1.85076
lowerback 19.1734 1.57849 -2.22228
upperback -3.5984 1.72772 1.10995
thorax -15.0677 1.05098 1.98243
lowerneck -9.24972 -3.20357 -5.57891
upperneck 7.43692 -4.04061 5.05335
head 3.94513 -1.89502 2.20016
rclavicle -7.72775e-015 -1.49089e-015
rhumerus 40.0548 -2.83096 -62.6755
rradius 94.0665
rwrist 20.6098
rhand 1.02241 -13.9126
rfingers 7.12502
rthumb 26.5693 -42.069
lclavicle -7.72775e-015 -1.49089e-015
lhumerus 42.4655 -4.89609 86.3149
lradius 87.6194
lwrist -35.5708
lhand -11.0805 2.00169
lfingers 7.12502
lthumb 14.943 31.4426
rfemur -73.9941 -5.45036 21.7595
rtibia 108.488
rfoot -33.2532 -17.8399
rtoes -13.2145
lfemur -74.8133 11.5945 -17.9468
ltibia 107.549
lfoot -31.3389 16.2644
ltoes -13.2601
218
root -0.879781 11.4569 11.2653 9.47474 1.86949 -1.86055
lowerback 19.1841 1.58179 -2.21681
upperback -3.59825 1.73383 1.11364
thorax -15.0743 1.05354 1.98141
lowerneck -9.22625 -3.19412 -5.57156
upperneck 7.39208 -4.02814 5.04846
head 3.92669 -1.8893 2.19876
rclavicle -3.1936e-014 -4.47266e-016
rhumerus 40.0483 -2.83853 -62.649
rradius 94.0738
rwrist 20.6183
rhand 1.01984 -13.8975
rfingers 7.12502
rthumb 26.5668 -42.0542
lclavicle -3.1936e-014 -4.47266e-016
lhumerus 42.4664 -4.89947 86.3092
lradius 87.6308
lwrist -35.5646
lhand -11.0676 2.00514
lfingers 7.12502
lthumb 14.9553 31.4452
rfemur -73.994 -5.44613 21.7662
rtibia 108.482
rfoot -33.2515 -17.8446
rtoes -13.2036
lfemur -74.8172 11.5987 -17.9395
ltibia 107.548
lfoot -31.3488 16.2456
ltoes -13.2428
219
root -0.879315 11.4572 11.2651 9.4805 1.8721 -1.87034
lowerback 19.1921 1.58602 -2.21338
upperback -3.59901 1.74079 1.11767
thorax -15.0805 1.0567 1.98172
lowerneck -9.20306 -3.18298 -5.56552
upperneck 7.35016 -4.01363 5.04697
head 3.90918 -1.88244 2.19873
rclavicle 2.16862e-014 1.93815e-014
rhumerus 40.0427 -2.84687 -62.6263
rradius 94.0823
rwrist 20.6226
rhand 1.02921 -13.8878
rfingers 7.12502
rthumb 26.5758 -42.0432
lclavicle 2.16862e-014 1.93815e-014
lhumerus 42.4675 -4.90216 86.3049
lradius 87.6423
lwrist -35.5546
lhand -11.0514 2.00847
lfingers 7.12502
lthumb 14.971 31.4473
rfemur -73.9973 -5.44105 21.7748
rtibia 108.477
rfoot -33.2455 -17.8558
rtoes -13.2154
lfemur -74.8274 11.6073 -17.9345
ltibia 107.548
lfoot -31.3517 16.2344
ltoes -13.2463
220
root -0.878934 11.4574 11.2649 9.48789 1.87257 -1.87709
lowerback 19.199 1.59108 -2.21433
upperback -3.6005 1.74768 1.12087
thorax -15.0871 1.06018 1.9836
lowerneck -9.18505 -3.17043 -5.55877
upperneck 7.31877 -3.99739 5.04552
head 3.89562 -1.87462 2.19861
rclavicle 3.20354e-014 -1.54058e-015
rhumerus 40.0373 -2.85555 -62.6086
rradius 94.0897
rwrist 20.6239
rhand 1.04691 -13.8823
rfingers 7.12502
rthumb 26.5927 -42.0351
lclavicle 3.20354e-014 -1.54058e-015
lhumerus 42.4678 -4.90331 86.3018
lradius 87.6536
lwrist -35.5438
lhand -11.0366 2.01116
lfingers 7.12502
lthumb 14.9853 31.449
rfemur -74.0033 -5.43688 21.7818
rtibia 108.473
rfoot -33.2362 -17.8703
rtoes -13.2536
lfemur -74.8412 11.6195 -17.9345
ltibia 107.548
lfoot -31.3517 16.2247
ltoes -13.2599
221
root -0.878637 11.4576 11.2647 9.49808 1.87107 -1.88257
lowerback 19.2031 1.59646 -2.21788
upperback -3.60239 1.75432 1.12345
thorax -15.0925 1.06373 1.98638
lowerneck -9.17316 -3.15526 -5.55271
upperneck 7.29731 -3.97788 5.04731
head 3.886 -1.86493 2.19969
rclavicle 2.1301e-014 -1.12313e-014
rhumerus 40.0341 -2.86439 -62.598
rradius 94.0946
rwrist 20.6196
rhand 1.06767 -13.8877
rfingers 7.12502
rthumb 26.6126 -42.0375
lclavicle 2.1301e-014 -1.12313e-014
lhumerus 42.4677 -4.90296 86.3002
lradius 87.6618
lwrist -35.5361
lhand -11.0315 2.01377
lfingers 7.12502
lthumb 14.9902 31.4512
rfemur -74.0141 -5.43334 21.7889
rtibia 108.47
rfoot -33.2244 -17.8839
rtoes -13.2986
lfemur -74.859 11.636 -17.9369
ltibia 107.547
lfoot -31.3509 16.2136
ltoes -13.2739
222
root -0.878326 11.4578 11.2645 9.51011 1.86879 -1.88287
lowerback 19.2062 1.60191 -2.2257
upperback -3.6048 1.75976 1.12416
thorax -15.0979 1.06702 1.98985
lowerneck -9.16615 -3.13841 -5.54791
upperneck 7.2856 -3.95626 5.05166
head 3.88012 -1.85402 2.20181
rclavicle -1.23681e-014 5.1684e-015
rhumerus 40.0313 -2.87379 -62.5946
rradius 94.0988
rwrist 20.6096
rhand 1.09145 -13.9001
rfingers 7.12502
rthumb 26.6354 -42.0464
lclavicle -1.23681e-014 5.1684e-015
lhumerus 42.4669 -4.90191 86.3013
lradius 87.6661
lwrist -35.5349
lhand -11.0366 2.01575
lfingers 7.12502
lthumb 14.9853 31.4536
rfemur -74.0284 -5.43465 21.7911
rtibia 108.468
rfoot -33.2143 -17.89
rtoes -13.3307
lfemur -74.8773 11.6518 -17.9459
ltibia 107.546
lfoot -31.3492 16.2041
ltoes -13.2899
223
root -0.878015 11.4578 11.2643 9.52271 1.86654 -1.88094
lowerback 19.2088 1.60719 -2.23399
upperback -3.60669 1.76462 1.12341
thorax -15.1023 1.06998 1.99212
lowerneck -9.1649 -3.12139 -5.54117
upperneck 7.28187 -3.93448 5.05442
head 3.87752 -1.84296 2.20303
rclavicle -1.00014e-014 -7.10655e-015
rhumerus 40.0282 -2.88545 -62.5979
rradius 94.0998
rwrist 20.5994
rhand 1.10923 -13.9156
rfingers 7.12502
rthumb 26.6524 -42.0594
lclavicle -1.00014e-014 -7.10655e-015
lhumerus 42.4665 -4.90168 86.3041
lradius 87.6688
lwrist -35.5383
lhand -11.052 2.02026
lfingers 7.12502
lthumb 14.9704 31.4592
rfemur -74.0456 -5.44039 21.792
rtibia 108.468
rfoot -33.2056 -17.8906
rtoes -13.3449
lfemur -74.8953 11.6674 -17.9572
ltibia 107.545
lfoot -31.3535 16.1847
ltoes -13.2799
224
root -0.877716 11.4578 11.264 9.53432 1.86512 -1.87846
lowerback 19.2136 1.61178 -2.24126
upperback -3.60773 1.76862 1.12156
thorax -15.1069 1.07237 1.99279
lowerneck -9.16315 -3.10431 -5.53266
upperneck 7.27733 -3.91281 5.05684
head 3.87457 -1.83194 2.20386
rclavicle -1.9133e-015 -2.18663e-015
rhumerus 40.0257 -2.89839 -62.6092
rradius 94.0994
rwrist 20.59
rhand 1.12118 -13.9319
rfingers 7.12502
rthumb 26.6638 -42.0739
lclavicle -1.9133e-015 -2.18663e-015
lhumerus 42.466 -4.90223 86.3057
lradius 87.6715
lwrist -35.5398
lhand -11.0703 2.02895
lfingers 7.12502
lthumb 14.9527 31.4692
rfemur -74.0633 -5.4499 21.7928
rtibia 108.469
rfoot -33.2001 -17.8816
rtoes -13.3301
lfemur -74.9111 11.6824 -17.9684
ltibia 107.544
lfoot -31.3593 16.1652
ltoes -13.2732
225
root -0.877404 11.4579 11.2636 9.54349 1.86443 -1.87464
lowerback 19.2233 1.61608 -2.24671
upperback -3.60812 1.77226 1.11763
thorax -15.1135 1.07431 1.99011
lowerneck -9.16007 -3.08851 -5.52022
upperneck 7.27043 -3.89305 5.05587
head 3.87064 -1.82194 2.20291
rclavicle 1.13183e-014 -2.73329e-015
rhumerus 40.0227 -2.91386 -62.6267
rradius 94.0967
rwrist 20.5853
rhand 1.13136 -13.9458
rfingers 7.12502
rthumb 26.6736 -42.0863
lclavicle 1.13183e-014 -2.73329e-015
lhumerus 42.4658 -4.90544 86.3052
lradius 87.6749
lwrist -35.5404
lhand -11.0875 2.04225
lfingers 7.12502
lthumb 14.9362 31.4837
rfemur -74.0785 -5.46233 21.7919
rtibia 108.469
rfoot -33.1968 -17.8676
rtoes -13.3048
lfemur -74.9221 11.6938 -17.9795
ltibia 107.541
lfoot -31.3672 16.144
ltoes -13.258
